#!OML:ASF E:\basketball\basketball\Project 1\Capture day 1\Session 1\Subject.ASF
:FULLY-SPECIFIED
:DEGREES
17
root -36.6177 15.7033 -14.362 3.5581 71.0329 -2.04312
lowerback -5.6919 1.418 -1.89847
upperback 3.93833 2.04402 0.69686
thorax 7.22628 0.898207 2.03788
lowerneck -12.8111 -5.10317 -12.748
upperneck 19.866 -7.32885 14.7784
head 9.38455 -2.84803 6.44064
rclavicle 5.08019e-014 4.57205e-015
rhumerus -40.2374 20.3529 -103.544
rradius 98.7695
rwrist -38.1446
rhand -24.5127 32.1118
rfingers 7.12502
rthumb 1.9822 2.14128
lclavicle 5.08019e-014 4.57205e-015
lhumerus -30.5881 -8.11206 103.478
lradius 50.0283
lwrist 7.48139
lhand -19.9706 22.295
lfingers 7.12502
lthumb 6.36824 52.1792
rfemur -14.242 3.40826 23.2378
rtibia 38.7971
rfoot -24.2997 -18.6408
rtoes -6.15643
lfemur -11.0834 4.85028 -14.9097
ltibia 32.1772
lfoot -19.2029 -5.21998
ltoes -6.32966
18
root -36.6076 15.6965 -14.3533 3.53831 71.1152 -2.01258
lowerback -5.61578 1.46761 -1.85245
upperback 3.96258 2.10998 0.632947
thorax 7.20877 0.935115 1.95061
lowerneck -12.662 -5.11262 -12.6887
upperneck 19.5671 -7.35933 14.8493
head 9.25878 -2.86092 6.44127
rclavicle -6.1002e-014 8.15017e-015
rhumerus -40.2151 20.1093 -103.602
rradius 98.7606
rwrist -38.2523
rhand -24.0375 32.114
rfingers 7.12502
rthumb 2.44119 2.14818
lclavicle -6.1002e-014 8.15017e-015
lhumerus -30.6354 -8.34942 103.442
lradius 50.0345
lwrist 7.5691
lhand -19.951 22.2994
lfingers 7.12502
lthumb 6.3871 52.1831
rfemur -14.1952 3.32213 23.2674
rtibia 38.8784
rfoot -24.3292 -18.9415
rtoes -7.51866
lfemur -11.0269 5.24393 -14.8309
ltibia 32.1997
lfoot -19.2881 -5.66502
ltoes -6.42998
19
root -36.5958 15.6909 -14.3438 3.45566 71.1918 -2.04629
lowerback -5.54418 1.53749 -1.7711
upperback 3.99032 2.20115 0.554799
thorax 7.19857 0.986477 1.83169
lowerneck -12.5032 -5.13025 -12.5903
upperneck 19.2529 -7.41112 14.9349
head 9.1291 -2.88012 6.43741
rclavicle -3.99619e-014 4.4975e-015
rhumerus -40.1925 19.8068 -103.683
rradius 98.7536
rwrist -38.3788
rhand -23.4314 32.0884
rfingers 7.12502
rthumb 3.0265 2.13012
lclavicle -3.99619e-014 4.4975e-015
lhumerus -30.6657 -8.52076 103.323
lradius 50.071
lwrist 7.65308
lhand -19.9277 22.3075
lfingers 7.12502
lthumb 6.40963 52.1905
rfemur -14.1248 3.22792 23.3215
rtibia 38.9252
rfoot -24.3576 -19.2813
rtoes -8.96307
lfemur -10.9568 5.65991 -14.7312
ltibia 32.223
lfoot -19.353 -6.08229
ltoes -6.61718
20
root -36.582 15.6867 -14.3335 3.33579 71.2616 -2.12827
lowerback -5.48869 1.61465 -1.6741
upperback 4.01807 2.30091 0.479397
thorax 7.19841 1.04262 1.7084
lowerneck -12.3796 -5.16019 -12.4813
upperneck 18.9619 -7.48005 15.0207
head 9.01698 -2.90531 6.43046
rclavicle 1.61792e-014 7.54139e-015
rhumerus -40.1778 19.4962 -103.78
rradius 98.7397
rwrist -38.5146
rhand -22.7129 32.0449
rfingers 7.12502
rthumb 3.72034 2.0976
lclavicle 1.61792e-014 7.54139e-015
lhumerus -30.6668 -8.56175 103.132
lradius 50.1338
lwrist 7.71831
lhand -19.901 22.3175
lfingers 7.12502
lthumb 6.43543 52.1998
rfemur -14.037 3.14387 23.391
rtibia 38.9369
rfoot -24.373 -19.6424
rtoes -10.3832
lfemur -10.8784 6.03315 -14.6256
ltibia 32.2447
lfoot -19.4382 -6.4543
ltoes -6.68223
21
root -36.5663 15.6832 -14.3228 3.21646 71.3274 -2.22843
lowerback -5.45812 1.68412 -1.58396
upperback 4.04336 2.39017 0.421946
thorax 7.21006 1.09256 1.60741
lowerneck -12.241 -5.1635 -12.4018
upperneck 18.6537 -7.502 15.0967
head 8.88992 -2.91318 6.4309
rclavicle 2.10067e-014 -1.00262e-014
rhumerus -40.1748 19.2427 -103.882
rradius 98.7071
rwrist -38.6565
rhand -21.944 32.0154
rfingers 7.12502
rthumb 4.46285 2.08246
lclavicle 2.10067e-014 -1.00262e-014
lhumerus -30.6321 -8.4379 102.895
lradius 50.2183
lwrist 7.75685
lhand -19.8718 22.3297
lfingers 7.12502
lthumb 6.46356 52.2111
rfemur -13.94 3.08518 23.4614
rtibia 38.9194
rfoot -24.3682 -19.9987
rtoes -11.6764
lfemur -10.7988 6.28068 -14.5335
ltibia 32.2627
lfoot -19.5806 -6.76571
ltoes -6.33809
22
root -36.5491 15.6802 -14.312 3.13287 71.3937 -2.31583
lowerback -5.45504 1.73511 -1.51727
upperback 4.06519 2.45536 0.390341
thorax 7.23325 1.12857 1.54485
lowerneck -12.1386 -5.164 -12.3559
upperneck 18.3705 -7.50588 15.1442
head 8.77597 -2.91656 6.42992
rclavicle -1.29459e-014 -7.59109e-015
rhumerus -40.1794 19.0726 -103.979
rradius 98.6433
rwrist -38.7965
rhand -21.2092 32.0247
rfingers 7.12502
rthumb 5.17231 2.10782
lclavicle -1.29459e-014 -7.59109e-015
lhumerus -30.5727 -8.17608 102.653
lradius 50.3203
lwrist 7.77175
lhand -19.8436 22.3466
lfingers 7.12502
lthumb 6.49077 52.2272
rfemur -13.8436 3.05834 23.519
rtibia 38.884
rfoot -24.3414 -20.3269
rtoes -12.788
lfemur -10.7249 6.31614 -14.4749
ltibia 32.2764
lfoot -19.8047 -6.97408
ltoes -5.40423
23
root -36.5308 15.6769 -14.3013 3.10397 71.4638 -2.37212
lowerback -5.47541 1.76466 -1.47936
upperback 4.08448 2.49287 0.38405
thorax 7.26619 1.14862 1.52262
lowerneck -12.082 -5.1684 -12.3436
upperneck 18.1202 -7.50127 15.1611
head 8.68087 -2.91939 6.42574
rclavicle 4.86308e-014 2.29845e-015
rhumerus -40.1832 18.994 -104.059
rradius 98.5414
rwrist -38.9374
rhand -20.6196 32.1095
rfingers 7.12502
rthumb 5.74158 2.20729
lclavicle 4.86308e-014 2.29845e-015
lhumerus -30.5134 -7.859 102.451
lradius 50.4322
lwrist 7.77563
lhand -19.819 22.3707
lfingers 7.12502
lthumb 6.5146 52.2506
rfemur -13.7574 3.05897 23.5567
rtibia 38.8439
rfoot -24.2983 -20.6117
rtoes -13.7122
lfemur -10.6624 6.08165 -14.4612
ltibia 32.287
lfoot -20.1153 -7.01324
ltoes -3.94847
24
root -36.5119 15.673 -14.291 3.1271 71.5362 -2.3968
lowerback -5.51008 1.77828 -1.46375
upperback 4.1026 2.50998 0.394931
thorax 7.30527 1.15691 1.52908
lowerneck -12.0656 -5.18134 -12.3531
upperneck 17.895 -7.49886 15.1561
head 8.60231 -2.92512 6.41773
rclavicle -2.17172e-014 2.96313e-015
rhumerus -40.1798 18.999 -104.115
rradius 98.4048
rwrist -39.0931
rhand -20.258 32.2852
rfingers 7.12502
rthumb 6.09073 2.39271
lclavicle -2.17172e-014 2.96313e-015
lhumerus -30.4876 -7.60408 102.335
lradius 50.5406
lwrist 7.78388
lhand -19.8021 22.3978
lfingers 7.12502
lthumb 6.53086 52.2771
rfemur -13.6888 3.07935 23.576
rtibia 38.8122
rfoot -24.2444 -20.8493
rtoes -14.4814
lfemur -10.6115 5.54241 -14.495
ltibia 32.2968
lfoot -20.5202 -6.7976
ltoes -2.32909
25
root -36.4929 15.6683 -14.2807 3.18005 71.6045 -2.4068
lowerback -5.54796 1.78705 -1.45557
upperback 4.11955 2.52091 0.410703
thorax 7.34465 1.16163 1.54422
lowerneck -12.0693 -5.20442 -12.3675
upperneck 17.6759 -7.50761 15.1459
head 8.5315 -2.93612 6.40746
rclavicle 4.53303e-014 -1.85874e-014
rhumerus -40.1651 19.0319 -104.154
rradius 98.2428
rwrist -39.2612
rhand -20.1411 32.525
rfingers 7.12502
rthumb 6.20356 2.63581
lclavicle 4.53303e-014 -1.85874e-014
lhumerus -30.5292 -7.52204 102.335
lradius 50.6309
lwrist 7.80952
lhand -19.7942 22.4218
lfingers 7.12502
lthumb 6.53846 52.3009
rfemur -13.641 3.11366 23.5868
rtibia 38.7978
rfoot -24.1805 -21.0453
rtoes -15.1368
lfemur -10.5661 4.69708 -14.5686
ltibia 32.3074
lfoot -21.0104 -6.25836
ltoes -1.00819
26
root -36.4737 15.6626 -14.2702 3.23473 71.658 -2.42307
lowerback -5.57832 1.8031 -1.44069
upperback 4.13382 2.54126 0.419703
thorax 7.37708 1.17162 1.54927
lowerneck -12.0655 -5.23518 -12.3723
upperneck 17.4408 -7.53046 15.1475
head 8.45654 -2.95252 6.39768
rclavicle -3.15043e-014 1.15419e-014
rhumerus -40.1451 19.0575 -104.187
rradius 98.0679
rwrist -39.4397
rhand -20.2284 32.7851
rfingers 7.12502
rthumb 6.11936 2.89346
lclavicle -3.15043e-014 1.15419e-014
lhumerus -30.6619 -7.68013 102.463
lradius 50.6894
lwrist 7.85846
lhand -19.7959 22.4368
lfingers 7.12502
lthumb 6.53688 52.316
rfemur -13.6113 3.15975 23.601
rtibia 38.8049
rfoot -24.102 -21.2057
rtoes -15.7085
lfemur -10.5135 3.57991 -14.67
ltibia 32.3175
lfoot -21.5677 -5.37227
ltoes -0.310144
27
root -36.4542 15.6561 -14.259 3.26979 71.6866 -2.46043
lowerback -5.59415 1.83422 -1.41208
upperback 4.14277 2.58116 0.415001
thorax 7.39591 1.19253 1.53385
lowerneck -12.0285 -5.26678 -12.3631
upperneck 17.1685 -7.56139 15.1742
head 8.36511 -2.97133 6.39282
rclavicle -5.9946e-015 1.2716e-014
rhumerus -40.1305 19.0578 -104.23
rradius 97.8895
rwrist -39.6151
rhand -20.4386 33.0107
rfingers 7.12502
rthumb 5.91638 3.11327
lclavicle -5.9946e-015 1.2716e-014
lhumerus -30.8889 -8.0648 102.697
lradius 50.7102
lwrist 7.92725
lhand -19.8055 22.4423
lfingers 7.12502
lthumb 6.52754 52.3217
rfemur -13.5933 3.21904 23.6276
rtibia 38.8336
rfoot -24.0062 -21.3348
rtoes -16.2137
lfemur -10.4414 2.29063 -14.7824
ltibia 32.3239
lfoot -22.1474 -4.21864
ltoes -0.252246
